<?xml version="1.0" standalone="no"?><!DOCTYPE svg PUBLIC "-//W3C//DTD SVG 1.1//EN"
        "http://www.w3.org/Graphics/SVG/1.1/DTD/svg11.dtd">
<svg t="1666367437241" class="icon" viewBox="0 0 1024 1024" version="1.1" xmlns="http://www.w3.org/2000/svg"
     p-id="15366" xmlns:xlink="http://www.w3.org/1999/xlink" width="200" height="200">
    <path d="M512.4 508.6m-399 0a399 399 0 1 0 798 0 399 399 0 1 0-798 0Z" fill="#887659" p-id="15367"></path>
    <path d="M792.9 213.5c69.4 91.6 101.3 211 78.5 332.8-40.8 217.5-241.6 364.6-457.8 342.3 10.6 2.9 21.3 5.5 32.3 7.6C662.5 936.8 871 794.1 911.6 577.5c26-138.6-23.1-273.9-118.7-364z"
          fill="#735234" p-id="15368"></path>
    <path d="M512.4 924.1c-229.1 0-415.6-186.4-415.6-415.6S283.3 93 512.4 93 928 279.4 928 508.6 741.6 924.1 512.4 924.1z m0-798c-210.9 0-382.5 171.6-382.5 382.5S301.5 891 512.4 891s382.5-171.6 382.5-382.5-171.5-382.4-382.5-382.4z"
          fill="#434D4F" p-id="15369"></path>
    <path d="M512.4 508.6m-319.9 0a319.9 319.9 0 1 0 639.8 0 319.9 319.9 0 1 0-639.8 0Z" fill="#A3CA39"
          p-id="15370"></path>
    <path d="M755.2 297.6c12.5 25 22.2 51.8 28.7 80.3 43.7 192.1-76.5 383.3-268.6 427-26.6 6.1-53.2 8.9-79.3 8.9 46 10.9 95.2 11.7 144.4 0.5 172.3-39.2 280.2-210.7 240.9-383-11.5-50.9-34.8-96.1-66.1-133.7z"
          fill="#8EB53C" p-id="15371"></path>
    <path d="M512.4 845C326.9 845 176 694.1 176 508.6s150.9-336.5 336.5-336.5S848.9 323 848.9 508.6 698 845 512.4 845z m0-639.8C345.1 205.2 209 341.3 209 508.6S345.1 812 512.4 812s303.4-136.1 303.4-303.4-136.1-303.4-303.4-303.4z"
          fill="#434D4F" p-id="15372"></path>
    <path d="M249.7 521.5c-0.7 0-1.5 0-2.2-0.1-9-1.2-15.4-9.5-14.2-18.6 9-66.6 37.4-128.4 82.2-178.8 6.1-6.8 16.5-7.4 23.3-1.4 6.8 6.1 7.4 16.5 1.4 23.3-40.4 45.5-66 101.2-74.1 161.3-1.2 8.3-8.3 14.3-16.4 14.3z"
          fill="#FFFFFF" p-id="15373"></path>
    <path d="M371.1 296.9m-18.9 0a18.9 18.9 0 1 0 37.8 0 18.9 18.9 0 1 0-37.8 0Z" fill="#FFFFFF" p-id="15374"></path>
    <path d="M536.2 697.7c0 19.1-10.7 29-23.7 29-13.2 0-23.7-9.9-23.7-29s23.7-42.7 23.7-42.7 23.7 23.7 23.7 42.7zM656.3 628.3c13.5 13.5 13 28.1 3.7 37.3-9.3 9.3-23.8 9.8-37.3-3.7-13.5-13.5-13.4-47-13.4-47s33.6 0 47 13.4zM692.2 494.3c19.1 0 29 10.7 29 23.7 0 13.2-9.9 23.7-29 23.7S649.4 518 649.4 518s23.8-23.7 42.8-23.7zM622.7 374.1c13.5-13.5 28.1-13 37.3-3.7 9.3 9.3 9.8 23.8-3.7 37.3-13.5 13.5-47 13.4-47 13.4s0-33.6 13.4-47zM488.7 338.3c0-19.1 10.7-29 23.7-29 13.2 0 23.7 9.9 23.7 29S512.4 381 512.4 381s-23.7-23.7-23.7-42.7zM368.6 407.7c-13.5-13.5-13-28.1-3.7-37.3 9.3-9.3 23.8-9.8 37.3 3.7s13.4 47 13.4 47-33.6 0-47-13.4zM332.7 541.7c-19.1 0-29-10.7-29-23.7 0-13.2 9.9-23.7 29-23.7s42.7 23.7 42.7 23.7-23.7 23.7-42.7 23.7zM402.2 661.9c-13.5 13.5-28.1 13-37.3 3.7-9.3-9.3-9.8-23.8 3.7-37.3 13.5-13.5 47-13.4 47-13.4s0 33.5-13.4 47z"
          fill="#1E9558" p-id="15375"></path>
</svg>